<?xml version="1.0" standalone="no"?><!DOCTYPE svg PUBLIC "-//W3C//DTD SVG 1.1//EN" "http://www.w3.org/Graphics/SVG/1.1/DTD/svg11.dtd"><svg t="1600069403094" class="icon" viewBox="0 0 1024 1024" version="1.1" xmlns="http://www.w3.org/2000/svg" p-id="7784" xmlns:xlink="http://www.w3.org/1999/xlink" width="200" height="200"><defs><style type="text/css"></style></defs><path d="M768 804.571429c-7.314286 0-21.942857 0-29.257143-7.314286l-512-519.314286c-14.628571-14.628571-14.628571-36.571429 0-51.2s36.571429-14.628571 51.2 0l519.314286 519.314286c14.628571 14.628571 14.628571 36.571429 0 51.2-7.314286 7.314286-14.628571 7.314286-29.257143 7.314286z" p-id="7785" fill="#ffffff"></path><path d="M256 804.571429c-7.314286 0-21.942857 0-29.257143-7.314286-14.628571-14.628571-14.628571-36.571429 0-51.2l519.314286-519.314286c14.628571-14.628571 36.571429-14.628571 51.2 0s14.628571 36.571429 0 51.2l-519.314286 519.314286c-7.314286 7.314286-14.628571 7.314286-21.942857 7.314286z" p-id="7786" fill="#ffffff"></path></svg>