<?xml version="1.0" standalone="no"?><!DOCTYPE svg PUBLIC "-//W3C//DTD SVG 1.1//EN" "http://www.w3.org/Graphics/SVG/1.1/DTD/svg11.dtd"><svg t="1600052794891" class="icon" viewBox="0 0 1024 1024" version="1.1" xmlns="http://www.w3.org/2000/svg" p-id="8202" xmlns:xlink="http://www.w3.org/1999/xlink" width="200" height="200"><defs><style type="text/css"></style></defs><path d="M512 614.4c-182.044444 0-352.711111-62.577778-483.555556-182.044444-17.066667-17.066667-17.066667-45.511111-5.688888-62.577778 17.066667-17.066667 45.511111-17.066667 62.577777-5.688889 113.777778 102.4 267.377778 159.288889 426.666667 159.288889s312.888889-56.888889 426.666667-159.288889c17.066667-17.066667 45.511111-17.066667 62.577777 5.688889s17.066667 45.511111-5.688888 62.577778c-130.844444 113.777778-301.511111 182.044444-483.555556 182.044444z" fill="#999b9b" p-id="8203"></path><path d="M290.133333 722.488889c-5.688889 0-11.377778 0-17.066666-5.688889-22.755556-11.377778-34.133333-34.133333-22.755556-56.888889l45.511111-113.777778c11.377778-22.755556 34.133333-34.133333 56.888889-22.755555 22.755556 11.377778 34.133333 34.133333 22.755556 56.888889l-45.511111 113.777777c-5.688889 22.755556-22.755556 28.444444-39.822223 28.444445zM119.466667 665.6c-5.688889 0-11.377778 0-17.066667-5.688889-22.755556-11.377778-34.133333-34.133333-22.755556-56.888889l45.511112-113.777778c5.688889-22.755556 34.133333-34.133333 56.888888-22.755555 22.755556 11.377778 34.133333 34.133333 22.755556 56.888889l-45.511111 113.777778c-5.688889 22.755556-22.755556 28.444444-39.822222 28.444444zM847.644444 665.6c-17.066667 0-34.133333-11.377778-39.822222-28.444444l-45.511111-113.777778c-5.688889-22.755556 0-45.511111 22.755556-56.888889 22.755556-5.688889 45.511111 0 56.888889 22.755555l45.511111 113.777778c5.688889 22.755556 0 45.511111-22.755556 56.888889-5.688889 5.688889-11.377778 5.688889-17.066667 5.688889zM676.977778 722.488889c-17.066667 0-34.133333-11.377778-39.822222-28.444445l-45.511112-113.777777c-5.688889-22.755556 0-45.511111 22.755556-56.888889 22.755556-5.688889 45.511111 0 56.888889 22.755555l45.511111 113.777778c5.688889 22.755556 0 45.511111-22.755556 56.888889-5.688889 5.688889-11.377778 5.688889-17.066666 5.688889z" fill="#999b9b" p-id="8204"></path></svg>