<?xml version="1.0" standalone="no"?><!DOCTYPE svg PUBLIC "-//W3C//DTD SVG 1.1//EN" "http://www.w3.org/Graphics/SVG/1.1/DTD/svg11.dtd"><svg t="1558683489555" class="icon" style="" viewBox="0 0 1024 1024" version="1.1" xmlns="http://www.w3.org/2000/svg" p-id="15304" xmlns:xlink="http://www.w3.org/1999/xlink" width="200" height="200"><defs><style type="text/css"></style></defs><path d="M503.192368 1020.314153l440.253962-248.282758c20.476928-12.79808 12.79808-43.513473-12.79808-43.513473h-291.796231c-7.678848 0-15.357696 5.119232-20.476928 12.798081l-145.898115 248.282757c-12.79808 20.476928 10.238464 43.513473 30.715392 30.715393" fill="#F9B92D" p-id="15305"></path><path d="M372.65195 354.813978H75.736487c-25.596161 0-33.275009 30.715393-12.79808 43.513473l442.813577 248.282757c20.476928 12.79808 46.073089-10.238464 33.275009-30.715392l-148.457731-248.282758c-2.559616-7.678848-10.238464-12.79808-17.917312-12.79808" fill="#3A75B5" p-id="15306"></path><path d="M508.311601 4.146578l-445.373194 248.282758c-20.476928 12.79808-12.79808 43.513473 12.79808 43.513473h296.915463c7.678848 0 15.357696-5.119232 20.476928-12.798081l148.457731-248.282757c10.238464-20.476928-12.79808-43.513473-33.275008-30.715393" fill="#32C699" p-id="15307"></path><path d="M636.292403 669.646753h296.915463c25.596161 0 33.275009-30.715393 12.79808-43.513473l-442.813578-248.282758c-20.476928-12.79808-46.073089 10.238464-33.275008 30.715393l148.457731 248.282758c2.559616 7.678848 10.238464 12.79808 17.917312 12.79808" fill="#F97359" p-id="15308"></path></svg>