<?xml version="1.0" encoding="utf-8"?>
<!-- Generator: Adobe Illustrator 22.1.0, SVG Export Plug-In . SVG Version: 6.00 Build 0)  -->
<svg version="1.1" fill="#090909" id="图层_1" xmlns="http://www.w3.org/2000/svg" xmlns:xlink="http://www.w3.org/1999/xlink" x="0px" y="0px"
	 viewBox="0 0 220 123.5" style="enable-background:new 0 0 220 123.5;" xml:space="preserve">
<path d="M9,34.5H3c-1.5,0-3,1-3,2.5v80c0,1.5,1.5,2.5,3,2.5h6c1.5,0,3-1,3-2.5V37C11.5,35.5,10.5,34.5,9,34.5 M13,11.5H2.5
	C1,11.5,0,13,0,14.5v6c0,1.5,1,3,2.5,3H13c1.5,0,2.5-1.5,2.5-3v-6C15.5,13,14.5,11.5,13,11.5 M217,12.5h-79.5l2.5-10
	c0.5-1.5-0.5-2.5-2-2.5h-5c-1.5,0-2.5,1-3,2.5l-2.5,10H122c-1.5,0-2.5,1-2.5,2.5v5c0,1.5,1,2.5,2.5,2.5h3L120.5,40
	c-0.5,1.5,0.5,2.5,2,2.5h5c1.5,0,2.5-1,3-2.5l4.5-17.5h82c1.5,0,2.5-1,2.5-2.5v-5C219.5,13.5,218.5,12.5,217,12.5 M98,15.5H30
	c-1.5,0-2.5,1-2.5,2.5v5c0,1.5,1,2.5,2.5,2.5h61V121c0,1.5,1,2.5,2.5,2.5h5c1.5,0,2.5-1,2.5-2.5V18C100,16.5,99,15.5,98,15.5
	 M219,55c0-0.5-0.5-0.5-0.5-0.5c-0.5-0.5-1-0.5-1.5-0.5h-43V37c0-1.5-1-2.5-2.5-2.5h-5c-1.5,0-2.5,1-2.5,2.5v17h-43
	c-0.5,0-1,0-1.5,0.5c-0.5,0-0.5,0.5-0.5,0.5v49.5c0,1.5,1,2.5,2.5,2.5h5c1.5,0,2.5-1,2.5-2.5V64h35.5v53.5c0,1.5,1,2.5,2.5,2.5h5
	c1.5,0,2.5-1,2.5-2.5V64H210v40.5c0,1.5,1,2.5,2.5,2.5h5c1.5,0,2.5-1,2.5-2.5v-48C219.5,56,219.5,55.5,219,55"/>
<path d="M71.5,64.5h-29L43,62l6.5-25c0.5-1.5-0.5-2.5-2-2.5h-5c-1.5,0-2.5,1-3,2.5l-9,35c-0.5,1.5,0.5,2.5,2,2.5h29L59,85l-4.5,17
	c-0.5,1.5,0.5,2.5,2,2.5h5c1.5,0,2.5-1,3-2.5l9-35C73.5,65.5,72.5,64.5,71.5,64.5"/>
</svg>
