<?xml version="1.0" standalone="no"?><!DOCTYPE svg PUBLIC "-//W3C//DTD SVG 1.1//EN" "http://www.w3.org/Graphics/SVG/1.1/DTD/svg11.dtd"><svg t="1599190054648" class="icon" viewBox="0 0 1024 1024" version="1.1" xmlns="http://www.w3.org/2000/svg" p-id="7687" xmlns:xlink="http://www.w3.org/1999/xlink" width="200" height="200"><defs><style type="text/css"></style></defs><path d="M704 1024H320c-89.6 0-160-70.4-160-160v-704C160 70.4 230.4 0 320 0h384c89.6 0 160 70.4 160 160v704c0 89.6-70.4 160-160 160zM320 64c-51.2 0-96 44.8-96 96v704c0 51.2 44.8 96 96 96h384c51.2 0 96-44.8 96-96v-704c0-51.2-44.8-96-96-96H320z" p-id="7688"></path><path d="M608 192h-192c-19.2 0-32-12.8-32-32s12.8-32 32-32h192c19.2 0 32 19.2 32 32s-12.8 32-32 32zM723.2 704H300.8c-19.2 0-32-12.8-32-32s12.8-32 32-32h422.4c19.2 0 32 12.8 32 32s-12.8 32-32 32z" p-id="7689"></path><path d="M512 832m-64 0a64 64 0 1 0 128 0 64 64 0 1 0-128 0Z" p-id="7690"></path></svg>
