<?xml version="1.0" standalone="no"?><!DOCTYPE svg PUBLIC "-//W3C//DTD SVG 1.1//EN" "http://www.w3.org/Graphics/SVG/1.1/DTD/svg11.dtd"><svg t="1599184001926" class="icon" viewBox="0 0 1024 1024" version="1.1" xmlns="http://www.w3.org/2000/svg" p-id="7687" xmlns:xlink="http://www.w3.org/1999/xlink" width="200" height="200"><defs><style type="text/css"></style></defs><path d="M86.528 710.371556A467.569778 467.569778 0 0 1 42.666667 512C42.666667 252.785778 252.785778 42.666667 512 42.666667a14.222222 14.222222 0 1 1 0 28.444444C268.515556 71.111111 71.111111 268.515556 71.111111 512c0 62.520889 13.027556 123.164444 37.831111 178.944l70.656-61.297778a15.274667 15.274667 0 0 1 24.803556 7.765334l62.549333 244.167111a15.274667 15.274667 0 0 1-20.650667 17.92L13.425778 802.986667a15.274667 15.274667 0 0 1-4.152889-25.656889l77.255111-66.986667z m850.944-396.743112A467.569778 467.569778 0 0 1 981.333333 512c0 259.214222-210.119111 469.333333-469.333333 469.333333a14.222222 14.222222 0 1 1 0-28.444444c243.484444 0 440.888889-197.404444 440.888889-440.888889 0-62.520889-13.027556-123.164444-37.831111-178.944l-70.656 61.297778a15.274667 15.274667 0 0 1-24.803556-7.765334l-62.549333-244.167111a15.274667 15.274667 0 0 1 20.650667-17.92l232.874666 96.483556a15.274667 15.274667 0 0 1 4.152889 25.656889l-77.255111 66.986666z" fill="#32C699" p-id="7688"></path></svg>
