<?xml version="1.0" standalone="no"?><!DOCTYPE svg PUBLIC "-//W3C//DTD SVG 1.1//EN" "http://www.w3.org/Graphics/SVG/1.1/DTD/svg11.dtd"><svg t="1600052781111" class="icon" viewBox="0 0 1024 1024" version="1.1" xmlns="http://www.w3.org/2000/svg" p-id="8005" xmlns:xlink="http://www.w3.org/1999/xlink" width="200" height="200"><defs><style type="text/css"></style></defs><path d="M512 836.266667C238.933333 836.266667 11.377778 574.577778 11.377778 512s227.555556-324.266667 500.622222-324.266667c267.377778 0 500.622222 267.377778 500.622222 329.955556s-233.244444 318.577778-500.622222 318.577778zM102.4 512c28.444444 56.888889 204.8 238.933333 409.6 238.933333s381.155556-187.733333 409.6-238.933333c-28.444444-56.888889-204.8-238.933333-409.6-238.933333S130.844444 455.111111 102.4 512z m-5.688889-5.688889z m830.577778 0z" fill="#999b9b" p-id="8006"></path><path d="M512 512m-142.222222 0a142.222222 142.222222 0 1 0 284.444444 0 142.222222 142.222222 0 1 0-284.444444 0Z" fill="#999b9b" p-id="8007"></path></svg>