<?xml version="1.0" standalone="no"?><!DOCTYPE svg PUBLIC "-//W3C//DTD SVG 1.1//EN" "http://www.w3.org/Graphics/SVG/1.1/DTD/svg11.dtd"><svg t="1603360851930" class="icon" viewBox="0 0 1024 1024" version="1.1" xmlns="http://www.w3.org/2000/svg" p-id="5358" xmlns:xlink="http://www.w3.org/1999/xlink" width="200" height="200"><defs><style type="text/css">@font-face { font-family: element-icons; src: url("chrome-extension://moombeodfomdpjnpocobemoiaemednkg/fonts/element-icons.woff") format("woff"), url("chrome-extension://moombeodfomdpjnpocobemoiaemednkg/fonts/element-icons.ttf ") format("truetype"); }
</style></defs><path d="M797.53 118.79A163.16 163.16 0 0 1 960.69 282v326.27a163.16 163.16 0 0 1-163.16 163.16H566.39L355.3 899.31a40.79 40.79 0 0 1-61.55-40.41l11.94-87.47h-79.22A163.16 163.16 0 0 1 63.31 608.27V282a163.16 163.16 0 0 1 163.16-163.21z m-50.95 299.38a40.79 40.79 0 0 0-57.58-3.69c-46 40.45-104.35 60.74-177 60.74s-131-20.29-177-60.74a40.79 40.79 0 1 0-53.88 61.26C342.6 529.82 420.21 556.8 512 556.8s169.4-27 230.89-81.06a40.79 40.79 0 0 0 3.69-57.57z" p-id="5359" fill="#8D8D8D"></path></svg>