<?xml version="1.0" standalone="no"?><!DOCTYPE svg PUBLIC "-//W3C//DTD SVG 1.1//EN" "http://www.w3.org/Graphics/SVG/1.1/DTD/svg11.dtd"><svg t="1603363311245" class="icon" viewBox="0 0 1024 1024" version="1.1" xmlns="http://www.w3.org/2000/svg" p-id="5644" xmlns:xlink="http://www.w3.org/1999/xlink" width="200" height="200"><defs><style type="text/css">@font-face { font-family: element-icons; src: url("chrome-extension://moombeodfomdpjnpocobemoiaemednkg/fonts/element-icons.woff") format("woff"), url("chrome-extension://moombeodfomdpjnpocobemoiaemednkg/fonts/element-icons.ttf ") format("truetype"); }
</style></defs><path d="M512 144.43733333c182.69866667 0 330.80533333 139.88266667 330.80533333 312.42666667q0 12.98133333-1.06666666 25.696A202.21866667 202.21866667 0 0 1 989.86666667 677.39733333c0 105.46133333-80.74666667 192.05333333-183.78666667 201.33333334v0.832H217.952v-0.832C114.92266667 869.45066667 34.13333333 782.85866667 34.13333333 677.39733333a202.25066667 202.25066667 0 0 1 148.18133334-194.85866666c-0.74666667-8.448-1.06666667-17.06666667-1.06666667-25.67466667-0.05333333-172.544 148.05333333-312.42666667 330.752-312.42666667zM686.528 499.52a39.81866667 39.81866667 0 0 0-55.56266667-9.16266667l-94.37866666 67.68-3.89333334 2.464a39.81866667 39.81866667 0 0 1-42.51733333-2.464l-94.368-67.68-3.92533333-2.48533333a39.82933333 39.82933333 0 0 0-42.48533334 67.2L443.73333333 622.752l6.4 4.26666667a119.46666667 119.46666667 0 0 0 132.896-4.26666667L677.33333333 555.08266667l3.616-2.93333334a39.81866667 39.81866667 0 0 0 5.57866667-52.62933333z" p-id="5645" fill="#27DFB0"></path></svg>